<?xml version="1.0" encoding="UTF-8"?>
<svg width="400" height="400" viewBox="0 0 400 400" fill="none" xmlns="http://www.w3.org/2000/svg">
  <!-- Candlestick Pattern -->
  <g opacity="0.5">
    <rect x="40" y="160" width="20" height="100" fill="currentColor"/>
    <line x1="50" y1="120" x2="50" y2="160" stroke="currentColor" stroke-width="2"/>
    <line x1="50" y1="260" x2="50" y2="300" stroke="currentColor" stroke-width="2"/>
    
    <rect x="100" y="200" width="20" height="60" fill="currentColor"/>
    <line x1="110" y1="180" x2="110" y2="200" stroke="currentColor" stroke-width="2"/>
    <line x1="110" y1="260" x2="110" y2="280" stroke="currentColor" stroke-width="2"/>
    
    <rect x="160" y="140" width="20" height="120" fill="currentColor"/>
    <line x1="170" y1="100" x2="170" y2="140" stroke="currentColor" stroke-width="2"/>
    <line x1="170" y1="260" x2="170" y2="320" stroke="currentColor" stroke-width="2"/>
    
    <rect x="220" y="180" width="20" height="80" fill="currentColor"/>
    <line x1="230" y1="160" x2="230" y2="180" stroke="currentColor" stroke-width="2"/>
    <line x1="230" y1="260" x2="230" y2="280" stroke="currentColor" stroke-width="2"/>
    
    <rect x="280" y="220" width="20" height="40" fill="currentColor"/>
    <line x1="290" y1="200" x2="290" y2="220" stroke="currentColor" stroke-width="2"/>
    <line x1="290" y1="260" x2="290" y2="300" stroke="currentColor" stroke-width="2"/>
  </g>
  
  <!-- Line Chart Pattern -->
  <path d="M20,200 Q60,180 100,220 T180,160 T260,240 T340,180" 
        stroke="currentColor" 
        stroke-width="2"
        fill="none"
        opacity="0.3"/>
</svg> 